<svg fill="none" height="20" viewBox="0 0 20 20" width="20" xmlns="http://www.w3.org/2000/svg"><path clip-rule="evenodd" d="m11.5 3.56495c.0019.00172.0039.00353.006.00545.0403.03675.0913.08748.1824.17852l3.5648 3.56297c.0912.0911.142.14212.1788.18243.0018.00202.0036.00395.0052.00579h-1.4872c-.5724 0-.9566-.00058-1.2525-.02475-.2871-.02346-.4244-.06535-.515-.11149-.2352-.11984-.4264-.31107-.5462-.54627-.0462-.09056-.0881-.22784-.1115-.51496-.0242-.29588-.0248-.6801-.0248-1.25253zm4.0024 5.43516v2.64999c0 .9925-.0006 1.6917-.0452 2.2377-.0439.5373-.1267.8598-.2546 1.1108-.2636.5174-.6843.9381-1.2018 1.2018-.251.1279-.5735.2106-1.1107.2545-.546.0446-1.2453.0452-2.2377.0452h-1.3024c-.99247 0-1.69171-.0006-2.23772-.0452-.53725-.0439-.85976-.1266-1.11075-.2545-.51745-.2637-.93815-.6844-1.2018-1.2018-.12789-.251-.21064-.5735-.25454-1.1108-.04461-.546-.04519-1.2452-.04519-2.2377v-3.29999c0-.99246.00058-1.69171.04519-2.23772.0439-.53725.12665-.85976.25454-1.11075.26365-.51745.68435-.93814 1.2018-1.20179.25099-.12789.5735-.21065 1.11075-.25454.54601-.04461 1.24525-.0452 2.23772-.0452h.65v1.58043c0 .53416 0 .98001.0298 1.34424.031.37989.0981.73654.27 1.07381.2636.51744.6843.93814 1.2018 1.20179.3372.17185.6939.23896 1.0738.26999.3642.02976.81.02975 1.3442.02974zm-4.3668-7.00005c.1953-.00034.4043-.00071.6088.04837.1785.04285.3491.11351.5057.2094.1793.10986.3269.25783.4647.39612.0114.01142.0227.02277.034.03403l3.5648 3.56298c.0113.01127.0227.0226.0341.03399.1385.13789.2866.28545.3966.46488.096.15661.1668.32736.2097.50598.0491.20465.0488.41374.0484.60915v.04813 3.76961c0 .9525 0 1.713-.0502 2.3273-.0515.63-.1595 1.1719-.4131 1.6696-.4074.7997-1.0576 1.4498-1.8573 1.8573-.4977.2536-1.0396.3616-1.6696.413-.6142.0502-1.3748.0502-2.3272.0502h-1.36763c-.95243 0-1.71298 0-2.32724-.0502-.63001-.0514-1.17189-.1594-1.66959-.413-.79969-.4075-1.44986-1.0576-1.85732-1.8573-.25359-.4977-.36157-1.0396-.41304-1.6696-.05019-.6143-.05019-1.3748-.05018-2.3273v-3.3652c-.00001-.95244-.00001-1.71299.05018-2.32725.05147-.63002.15945-1.1719.41304-1.6696.40746-.79969 1.05763-1.44985 1.85732-1.85731.4977-.25359 1.03958-.36158 1.66959-.41305.61427-.05019 1.37481-.05018 2.32726-.05018h1.77011c.016 0 .032-.00002.0481-.00005z" fill="#818c99" fill-rule="evenodd"/></svg>